<svg width="759" height="800" viewBox="0 0 759 800" fill="none" xmlns="http://www.w3.org/2000/svg">
<path d="M455.21 348.373C485.07 370.293 500 381.253 500 400.003C500 418.75 485.07 429.71 455.21 451.633C446.97 457.683 438.793 463.38 431.28 468.13C424.69 472.293 417.227 476.603 409.497 480.833C379.71 497.137 364.813 505.287 351.457 496.263C338.097 487.237 336.883 468.343 334.457 430.557C333.77 419.87 333.333 409.393 333.333 400.003C333.333 390.61 333.77 380.133 334.457 369.447C336.883 331.661 338.097 312.767 351.457 303.742C364.813 294.717 379.71 302.868 409.497 319.172C417.227 323.401 424.69 327.71 431.28 331.875C438.793 336.623 446.97 342.32 455.21 348.373Z" fill="white"/>
<path d="M-235.687 410.075L-28.1458 342.642V454.758C-40.4787 448.344 -55.1433 444.625 -70.875 444.625C-114.7 444.625 -150.229 473.484 -150.229 509.083C-150.229 544.682 -114.7 573.542 -70.875 573.542C-27.0495 573.542 8.47918 544.682 8.47918 509.083V319.601C8.47918 296.934 8.47917 277.925 6.51607 262.779C6.23772 260.639 5.91052 258.511 5.54916 256.525C3.65686 246.178 0.314234 236.525 -6.13665 228.464C-9.36209 224.434 -13.3664 220.802 -18.3523 217.68C-19.2875 217.095 -20.2592 216.527 -21.2628 215.978L-21.4654 215.869C-38.7329 206.534 -58.1466 207.201 -78.1439 211.341C-97.4843 215.344 -121.461 223.496 -150.864 233.493L-201.992 250.876C-215.776 255.561 -227.452 259.531 -236.615 263.642C-246.367 268.016 -254.767 273.175 -261.066 280.863C-267.363 288.551 -269.981 296.837 -271.182 305.832C-272.312 314.286 -272.312 324.568 -272.312 336.703V494.424C-284.648 488.01 -299.31 484.292 -315.042 484.292C-358.868 484.292 -394.396 513.151 -394.396 548.75C-394.396 584.349 -358.868 613.208 -315.042 613.208C-271.216 613.208 -235.687 584.349 -235.687 548.75V410.075Z" fill="white"/>
<path fill-rule="evenodd" clip-rule="evenodd" d="M182.23 146.402C191.983 156.175 191.967 172.004 182.194 181.758C126.241 237.6 91.6666 314.739 91.6666 400C91.6666 486.26 127.054 564.207 184.168 620.197C194.027 629.863 194.185 645.69 184.519 655.55C174.854 665.41 159.025 665.567 149.166 655.9C82.8546 590.897 41.6666 500.237 41.6666 400C41.6666 300.928 81.907 211.205 146.874 146.367C156.647 136.614 172.476 136.63 182.23 146.402ZM620.547 148.815C630.407 139.15 646.233 139.307 655.9 149.167C719.237 213.775 758.333 302.348 758.333 400C758.333 498.817 718.303 588.33 653.633 653.127C643.88 662.9 628.05 662.917 618.28 653.163C608.507 643.41 608.49 627.58 618.243 617.807C673.94 562 708.333 485.04 708.333 400C708.333 315.958 674.74 239.81 620.197 184.169C610.53 174.309 610.687 158.481 620.547 148.815ZM276.974 249.586C286.409 259.667 285.884 275.487 275.803 284.922C244.172 314.521 225 355.007 225 399.407C225 444.323 244.623 485.243 276.919 514.93C287.084 524.273 287.749 540.087 278.405 550.253C269.062 560.417 253.246 561.083 243.081 551.74C201.322 513.353 175 459.413 175 399.407C175 340.1 200.716 286.709 241.639 248.414C251.72 238.98 267.54 239.504 276.974 249.586ZM524.763 250.853C534.307 240.875 550.13 240.524 560.11 250.067C600.017 288.238 625 340.953 625 399.407C625 458.56 599.417 511.827 558.68 550.1C548.62 559.557 532.797 559.063 523.343 549C513.89 538.937 514.383 523.117 524.443 513.663C555.927 484.083 575 443.693 575 399.407C575 355.64 556.37 315.682 525.547 286.2C515.57 276.656 515.22 260.831 524.763 250.853Z" fill="white"/>
</svg>
