<svg width="724" height="800" viewBox="0 0 724 800" fill="none" xmlns="http://www.w3.org/2000/svg">
<path d="M455.21 348.373C485.07 370.293 500 381.253 500 400.003C500 418.75 485.07 429.71 455.21 451.633C446.97 457.683 438.793 463.38 431.28 468.13C424.69 472.293 417.227 476.603 409.497 480.833C379.71 497.137 364.813 505.287 351.457 496.263C338.097 487.237 336.883 468.343 334.457 430.557C333.77 419.87 333.333 409.393 333.333 400.003C333.333 390.61 333.77 380.133 334.457 369.447C336.883 331.661 338.097 312.767 351.457 303.742C364.813 294.717 379.71 302.868 409.497 319.172C417.227 323.401 424.69 327.71 431.28 331.875C438.793 336.623 446.97 342.32 455.21 348.373Z" fill="white"/>
<path d="M-235.687 410.075L-28.1458 342.642V454.758C-40.4787 448.344 -55.1433 444.625 -70.875 444.625C-114.7 444.625 -150.229 473.484 -150.229 509.083C-150.229 544.682 -114.7 573.542 -70.875 573.542C-27.0495 573.542 8.47918 544.682 8.47918 509.083V319.601C8.47918 296.934 8.47917 277.925 6.51607 262.779C6.23772 260.639 5.91052 258.511 5.54916 256.525C3.65686 246.178 0.314234 236.525 -6.13665 228.464C-9.36209 224.434 -13.3664 220.802 -18.3523 217.68C-19.2875 217.095 -20.2592 216.527 -21.2628 215.978L-21.4654 215.869C-38.7329 206.534 -58.1466 207.201 -78.1439 211.341C-97.4843 215.344 -121.461 223.496 -150.864 233.493L-201.992 250.876C-215.776 255.561 -227.452 259.531 -236.615 263.642C-246.367 268.016 -254.767 273.175 -261.066 280.863C-267.363 288.551 -269.981 296.837 -271.182 305.832C-272.312 314.286 -272.312 324.568 -272.312 336.703V494.424C-284.648 488.01 -299.31 484.292 -315.042 484.292C-358.868 484.292 -394.396 513.151 -394.396 548.75C-394.396 584.349 -358.868 613.208 -315.042 613.208C-271.216 613.208 -235.687 584.349 -235.687 548.75V410.075Z" fill="white"/>
</svg>
